<mxfile host="app.diagrams.net" modified="2020-12-18T05:27:30.639Z" agent="5.0 (Windows NT 10.0; Win64; x64) AppleWebKit/537.36 (KHTML, like Gecko) Chrome/87.0.4280.88 Safari/537.36" etag="IGW6vFM45sDAsBTWDud4" version="13.3.9" type="github">
  <diagram id="FpbUcxFh77MoJ_hp5LXD" name="Page-1">
    <mxGraphModel dx="1422" dy="762" grid="1" gridSize="10" guides="1" tooltips="1" connect="1" arrows="1" fold="1" page="1" pageScale="1" pageWidth="827" pageHeight="1169" math="0" shadow="0">
      <root>
        <mxCell id="0" />
        <mxCell id="1" parent="0" />
        <mxCell id="Wr8-bOFUWKxUMzQvNKIm-4" value="&lt;font style=&quot;font-size: 18px&quot;&gt;DS30&lt;/font&gt;" style="verticalLabelPosition=bottom;html=1;verticalAlign=top;strokeWidth=1;align=center;outlineConnect=0;dashed=0;outlineConnect=0;shape=mxgraph.aws3d.end_user;strokeColor=none;fillColor=#777777;aspect=fixed;" vertex="1" parent="1">
          <mxGeometry x="110" y="94" width="49" height="100.46" as="geometry" />
        </mxCell>
        <mxCell id="Wr8-bOFUWKxUMzQvNKIm-23" style="edgeStyle=orthogonalEdgeStyle;rounded=0;orthogonalLoop=1;jettySize=auto;html=1;" edge="1" parent="1" source="Wr8-bOFUWKxUMzQvNKIm-5" target="Wr8-bOFUWKxUMzQvNKIm-6">
          <mxGeometry relative="1" as="geometry" />
        </mxCell>
        <mxCell id="Wr8-bOFUWKxUMzQvNKIm-5" value="&lt;font style=&quot;font-size: 18px&quot;&gt;IMAS&lt;/font&gt;" style="verticalLabelPosition=bottom;html=1;verticalAlign=top;strokeWidth=1;align=center;outlineConnect=0;dashed=0;outlineConnect=0;shape=mxgraph.aws3d.application;fillColor=#4286c5;strokeColor=#57A2D8;aspect=fixed;" vertex="1" parent="1">
          <mxGeometry x="414" y="240" width="80.02" height="88.8" as="geometry" />
        </mxCell>
        <mxCell id="Wr8-bOFUWKxUMzQvNKIm-6" value="&lt;font style=&quot;font-size: 18px&quot;&gt;SAP&lt;/font&gt;" style="verticalLabelPosition=bottom;html=1;verticalAlign=top;strokeWidth=1;align=center;outlineConnect=0;dashed=0;outlineConnect=0;shape=mxgraph.aws3d.dynamoDb;fillColor=#ECECEC;strokeColor=#5E5E5E;aspect=fixed;" vertex="1" parent="1">
          <mxGeometry x="210" y="234.4" width="86.43" height="100" as="geometry" />
        </mxCell>
        <mxCell id="Wr8-bOFUWKxUMzQvNKIm-7" value="&lt;font style=&quot;font-size: 18px&quot;&gt;提貨司機&lt;/font&gt;" style="verticalLabelPosition=bottom;html=1;verticalAlign=top;strokeWidth=1;align=center;outlineConnect=0;dashed=0;outlineConnect=0;shape=mxgraph.aws3d.end_user;strokeColor=none;fillColor=#777777;aspect=fixed;" vertex="1" parent="1">
          <mxGeometry x="520" y="599" width="49" height="100.46" as="geometry" />
        </mxCell>
        <mxCell id="Wr8-bOFUWKxUMzQvNKIm-14" value="" style="group" vertex="1" connectable="0" parent="1">
          <mxGeometry x="630.2544574188341" y="100.184193901283" width="88.00108516233158" height="104.27161219743404" as="geometry" />
        </mxCell>
        <mxCell id="Wr8-bOFUWKxUMzQvNKIm-9" value="" style="verticalLabelPosition=bottom;html=1;verticalAlign=top;strokeWidth=1;align=center;outlineConnect=0;dashed=0;outlineConnect=0;shape=mxgraph.aws3d.mobile_worker;aspect=fixed;strokeColor=none;fillColor=#777777;rotation=15;" vertex="1" parent="Wr8-bOFUWKxUMzQvNKIm-14">
          <mxGeometry x="10.50554258116577" y="7.135806098717012" width="66.99000000000001" height="90" as="geometry" />
        </mxCell>
        <mxCell id="Wr8-bOFUWKxUMzQvNKIm-12" value="&lt;font style=&quot;font-size: 15px&quot; color=&quot;#0000ff&quot;&gt;IMAS&lt;/font&gt;" style="text;html=1;align=center;verticalAlign=middle;resizable=0;points=[];autosize=1;rotation=30;strokeWidth=5;" vertex="1" parent="Wr8-bOFUWKxUMzQvNKIm-14">
          <mxGeometry x="18.995542581165836" y="42.135806098717" width="50" height="20" as="geometry" />
        </mxCell>
        <mxCell id="Wr8-bOFUWKxUMzQvNKIm-15" value="" style="group" vertex="1" connectable="0" parent="1">
          <mxGeometry x="555.5044574188342" y="539.004193901283" width="88.00108516233149" height="104.27161219743402" as="geometry" />
        </mxCell>
        <mxCell id="Wr8-bOFUWKxUMzQvNKIm-11" value="" style="verticalLabelPosition=bottom;html=1;verticalAlign=top;strokeWidth=1;align=center;outlineConnect=0;dashed=0;outlineConnect=0;shape=mxgraph.aws3d.mobile_worker;aspect=fixed;strokeColor=none;fillColor=#777777;rotation=15;" vertex="1" parent="Wr8-bOFUWKxUMzQvNKIm-15">
          <mxGeometry x="10.505542581165741" y="7.135806098717012" width="66.99000000000001" height="90" as="geometry" />
        </mxCell>
        <mxCell id="Wr8-bOFUWKxUMzQvNKIm-13" value="&lt;font style=&quot;font-size: 15px&quot; color=&quot;#0000ff&quot;&gt;IMAS&lt;/font&gt;" style="text;html=1;align=center;verticalAlign=middle;resizable=0;points=[];autosize=1;rotation=30;strokeWidth=5;" vertex="1" parent="Wr8-bOFUWKxUMzQvNKIm-15">
          <mxGeometry x="19.00554258116574" y="42.13580609871701" width="50" height="20" as="geometry" />
        </mxCell>
        <mxCell id="Wr8-bOFUWKxUMzQvNKIm-43" style="edgeStyle=orthogonalEdgeStyle;rounded=0;orthogonalLoop=1;jettySize=auto;html=1;" edge="1" parent="1" source="Wr8-bOFUWKxUMzQvNKIm-30">
          <mxGeometry relative="1" as="geometry">
            <mxPoint x="580" y="154.23000000000002" as="targetPoint" />
          </mxGeometry>
        </mxCell>
        <mxCell id="Wr8-bOFUWKxUMzQvNKIm-30" value="" style="verticalLabelPosition=bottom;html=1;verticalAlign=top;strokeWidth=1;align=center;outlineConnect=0;dashed=0;outlineConnect=0;shape=mxgraph.aws3d.reference;aspect=fixed;" vertex="1" parent="1">
          <mxGeometry x="400" y="123.25" width="94.02" height="62.15" as="geometry" />
        </mxCell>
        <mxCell id="Wr8-bOFUWKxUMzQvNKIm-46" style="edgeStyle=orthogonalEdgeStyle;rounded=0;orthogonalLoop=1;jettySize=auto;html=1;" edge="1" parent="1" source="Wr8-bOFUWKxUMzQvNKIm-31" target="Wr8-bOFUWKxUMzQvNKIm-11">
          <mxGeometry relative="1" as="geometry" />
        </mxCell>
        <mxCell id="Wr8-bOFUWKxUMzQvNKIm-31" value="" style="verticalLabelPosition=bottom;html=1;verticalAlign=top;strokeWidth=1;align=center;outlineConnect=0;dashed=0;outlineConnect=0;shape=mxgraph.aws3d.reference;aspect=fixed;" vertex="1" parent="1">
          <mxGeometry x="630" y="300" width="88.51" height="58.51" as="geometry" />
        </mxCell>
        <mxCell id="Wr8-bOFUWKxUMzQvNKIm-32" value="&lt;font style=&quot;font-size: 18px&quot;&gt;DS30&lt;/font&gt;" style="verticalLabelPosition=bottom;html=1;verticalAlign=top;strokeWidth=1;align=center;outlineConnect=0;dashed=0;outlineConnect=0;shape=mxgraph.aws3d.end_user;strokeColor=none;fillColor=#777777;aspect=fixed;" vertex="1" parent="1">
          <mxGeometry x="581.25" y="102.09" width="49" height="100.46" as="geometry" />
        </mxCell>
        <mxCell id="Wr8-bOFUWKxUMzQvNKIm-33" value="" style="group" vertex="1" connectable="0" parent="1">
          <mxGeometry x="179.49445741883417" y="102.09419390128299" width="88.00108516233158" height="104.27161219743404" as="geometry" />
        </mxCell>
        <mxCell id="Wr8-bOFUWKxUMzQvNKIm-34" value="" style="verticalLabelPosition=bottom;html=1;verticalAlign=top;strokeWidth=1;align=center;outlineConnect=0;dashed=0;outlineConnect=0;shape=mxgraph.aws3d.mobile_worker;aspect=fixed;strokeColor=none;fillColor=#777777;rotation=15;" vertex="1" parent="Wr8-bOFUWKxUMzQvNKIm-33">
          <mxGeometry x="10.50554258116577" y="7.135806098717012" width="66.99000000000001" height="90" as="geometry" />
        </mxCell>
        <mxCell id="Wr8-bOFUWKxUMzQvNKIm-35" value="&lt;font style=&quot;font-size: 15px&quot; color=&quot;#0000ff&quot;&gt;IMAS&lt;/font&gt;" style="text;html=1;align=center;verticalAlign=middle;resizable=0;points=[];autosize=1;rotation=30;strokeWidth=5;" vertex="1" parent="Wr8-bOFUWKxUMzQvNKIm-33">
          <mxGeometry x="18.995542581165836" y="42.135806098717" width="50" height="20" as="geometry" />
        </mxCell>
        <mxCell id="Wr8-bOFUWKxUMzQvNKIm-40" value="" style="verticalLabelPosition=bottom;html=1;verticalAlign=top;strokeWidth=1;align=center;outlineConnect=0;dashed=0;outlineConnect=0;shape=mxgraph.aws3d.application_server;fillColor=#ECECEC;strokeColor=#5E5E5E;aspect=fixed;" vertex="1" parent="1">
          <mxGeometry x="730" y="100.18" width="53.35" height="53.79" as="geometry" />
        </mxCell>
        <mxCell id="Wr8-bOFUWKxUMzQvNKIm-41" value="" style="verticalLabelPosition=bottom;html=1;verticalAlign=top;strokeWidth=1;align=center;outlineConnect=0;dashed=0;outlineConnect=0;shape=mxgraph.aws3d.application_server;fillColor=#ECECEC;strokeColor=#5E5E5E;aspect=fixed;" vertex="1" parent="1">
          <mxGeometry x="760" y="119.27" width="49.52" height="49.92" as="geometry" />
        </mxCell>
        <mxCell id="Wr8-bOFUWKxUMzQvNKIm-42" style="edgeStyle=orthogonalEdgeStyle;rounded=0;orthogonalLoop=1;jettySize=auto;html=1;" edge="1" parent="1" target="Wr8-bOFUWKxUMzQvNKIm-30">
          <mxGeometry relative="1" as="geometry">
            <mxPoint x="260" y="154" as="sourcePoint" />
          </mxGeometry>
        </mxCell>
        <mxCell id="Wr8-bOFUWKxUMzQvNKIm-44" style="edgeStyle=orthogonalEdgeStyle;rounded=0;orthogonalLoop=1;jettySize=auto;html=1;" edge="1" parent="1" target="Wr8-bOFUWKxUMzQvNKIm-31">
          <mxGeometry relative="1" as="geometry">
            <mxPoint x="674" y="210" as="sourcePoint" />
          </mxGeometry>
        </mxCell>
        <mxCell id="Wr8-bOFUWKxUMzQvNKIm-51" style="edgeStyle=orthogonalEdgeStyle;rounded=0;orthogonalLoop=1;jettySize=auto;html=1;entryX=1;entryY=0.5;entryDx=0;entryDy=0;entryPerimeter=0;" edge="1" parent="1" source="Wr8-bOFUWKxUMzQvNKIm-47" target="Wr8-bOFUWKxUMzQvNKIm-50">
          <mxGeometry relative="1" as="geometry" />
        </mxCell>
        <mxCell id="Wr8-bOFUWKxUMzQvNKIm-76" style="edgeStyle=orthogonalEdgeStyle;rounded=0;jumpStyle=none;orthogonalLoop=1;jettySize=auto;html=1;entryX=0.511;entryY=1.06;entryDx=0;entryDy=0;entryPerimeter=0;endArrow=classic;endFill=1;" edge="1" parent="1" source="Wr8-bOFUWKxUMzQvNKIm-47" target="Wr8-bOFUWKxUMzQvNKIm-68">
          <mxGeometry relative="1" as="geometry" />
        </mxCell>
        <mxCell id="Wr8-bOFUWKxUMzQvNKIm-47" value="" style="verticalLabelPosition=bottom;html=1;verticalAlign=top;strokeWidth=1;align=center;outlineConnect=0;dashed=0;outlineConnect=0;shape=mxgraph.aws3d.spot;aspect=fixed;sketch=0;" vertex="1" parent="1">
          <mxGeometry x="322" y="565" width="92" height="53.42" as="geometry" />
        </mxCell>
        <mxCell id="Wr8-bOFUWKxUMzQvNKIm-49" style="edgeStyle=orthogonalEdgeStyle;rounded=0;orthogonalLoop=1;jettySize=auto;html=1;" edge="1" parent="1" target="Wr8-bOFUWKxUMzQvNKIm-47">
          <mxGeometry relative="1" as="geometry">
            <mxPoint x="560" y="592" as="sourcePoint" />
          </mxGeometry>
        </mxCell>
        <mxCell id="Wr8-bOFUWKxUMzQvNKIm-50" value="&lt;font style=&quot;font-size: 18px&quot;&gt;出庫&lt;/font&gt;" style="shape=mxgraph.signs.transportation.truck_1;html=1;verticalLabelPosition=bottom;verticalAlign=top;align=center;shadow=1;sketch=0;strokeColor=#1A1A1A;gradientDirection=north;fillColor=#004182;" vertex="1" parent="1">
          <mxGeometry x="90" y="559.71" width="118" height="64" as="geometry" />
        </mxCell>
        <mxCell id="Wr8-bOFUWKxUMzQvNKIm-55" value="檢查工單與&lt;br&gt;實貨內容" style="text;html=1;align=center;verticalAlign=middle;resizable=0;points=[];autosize=1;fontStyle=1" vertex="1" parent="1">
          <mxGeometry x="328" y="576.71" width="80" height="30" as="geometry" />
        </mxCell>
        <mxCell id="Wr8-bOFUWKxUMzQvNKIm-56" value="輸入工單號" style="text;html=1;align=center;verticalAlign=middle;resizable=0;points=[];autosize=1;fontStyle=1" vertex="1" parent="1">
          <mxGeometry x="179.49" y="74" width="80" height="20" as="geometry" />
        </mxCell>
        <mxCell id="Wr8-bOFUWKxUMzQvNKIm-57" value="查詢工單與實貨儲格資訊，&lt;br&gt;顯示下架儲格建議順序" style="text;html=1;align=center;verticalAlign=middle;resizable=0;points=[];autosize=1;fontStyle=1" vertex="1" parent="1">
          <mxGeometry x="374.01" y="88" width="160" height="30" as="geometry" />
        </mxCell>
        <mxCell id="Wr8-bOFUWKxUMzQvNKIm-58" value="人員實際操作儲格下架" style="text;html=1;align=center;verticalAlign=middle;resizable=0;points=[];autosize=1;fontStyle=1" vertex="1" parent="1">
          <mxGeometry x="606" y="73" width="140" height="20" as="geometry" />
        </mxCell>
        <mxCell id="Wr8-bOFUWKxUMzQvNKIm-59" value="工單下架紀錄" style="text;html=1;align=center;verticalAlign=middle;resizable=0;points=[];autosize=1;fontStyle=1" vertex="1" parent="1">
          <mxGeometry x="671.25" y="370" width="90" height="20" as="geometry" />
        </mxCell>
        <mxCell id="Wr8-bOFUWKxUMzQvNKIm-60" value="輸入提貨工單" style="text;html=1;align=center;verticalAlign=middle;resizable=0;points=[];autosize=1;fontStyle=1" vertex="1" parent="1">
          <mxGeometry x="581.25" y="654" width="90" height="20" as="geometry" />
        </mxCell>
        <mxCell id="Wr8-bOFUWKxUMzQvNKIm-61" value="" style="endArrow=classic;startArrow=classic;html=1;" edge="1" parent="1">
          <mxGeometry width="50" height="50" relative="1" as="geometry">
            <mxPoint x="453.51" y="240" as="sourcePoint" />
            <mxPoint x="454" y="180" as="targetPoint" />
          </mxGeometry>
        </mxCell>
        <mxCell id="Wr8-bOFUWKxUMzQvNKIm-62" value="" style="endArrow=classic;startArrow=classic;html=1;entryX=0;entryY=0.513;entryDx=0;entryDy=0;entryPerimeter=0;" edge="1" parent="1" target="Wr8-bOFUWKxUMzQvNKIm-31">
          <mxGeometry width="50" height="50" relative="1" as="geometry">
            <mxPoint x="500" y="300" as="sourcePoint" />
            <mxPoint x="600" y="320" as="targetPoint" />
          </mxGeometry>
        </mxCell>
        <mxCell id="Wr8-bOFUWKxUMzQvNKIm-67" style="edgeStyle=orthogonalEdgeStyle;rounded=0;jumpStyle=none;orthogonalLoop=1;jettySize=auto;html=1;entryX=0.737;entryY=-0.027;entryDx=0;entryDy=0;entryPerimeter=0;endArrow=classic;endFill=1;" edge="1" parent="1" source="Wr8-bOFUWKxUMzQvNKIm-64" target="Wr8-bOFUWKxUMzQvNKIm-50">
          <mxGeometry relative="1" as="geometry" />
        </mxCell>
        <mxCell id="Wr8-bOFUWKxUMzQvNKIm-75" style="edgeStyle=orthogonalEdgeStyle;rounded=0;jumpStyle=none;orthogonalLoop=1;jettySize=auto;html=1;endArrow=classic;endFill=1;" edge="1" parent="1" source="Wr8-bOFUWKxUMzQvNKIm-64">
          <mxGeometry relative="1" as="geometry">
            <mxPoint x="790" y="180" as="targetPoint" />
          </mxGeometry>
        </mxCell>
        <mxCell id="Wr8-bOFUWKxUMzQvNKIm-64" value="" style="verticalLabelPosition=bottom;html=1;verticalAlign=top;strokeWidth=1;align=center;outlineConnect=0;dashed=0;outlineConnect=0;shape=mxgraph.aws3d.spot;aspect=fixed;sketch=0;" vertex="1" parent="1">
          <mxGeometry x="322" y="410" width="92" height="53.42" as="geometry" />
        </mxCell>
        <mxCell id="Wr8-bOFUWKxUMzQvNKIm-68" value="YES&amp;nbsp; &amp;nbsp; &amp;nbsp; &amp;nbsp; &amp;nbsp; &amp;nbsp; &amp;nbsp; &amp;nbsp; &amp;nbsp; &amp;nbsp; &amp;nbsp; &amp;nbsp; &amp;nbsp; NO&lt;br&gt;DS30 檢查是否&amp;nbsp;&lt;br&gt;有新工單產生" style="text;html=1;align=center;verticalAlign=middle;resizable=0;points=[];autosize=1;fontStyle=1" vertex="1" parent="1">
          <mxGeometry x="296.43" y="410.0000000000001" width="140" height="50" as="geometry" />
        </mxCell>
        <mxCell id="Wr8-bOFUWKxUMzQvNKIm-70" value="無新工單,扣住不出貨" style="text;html=1;align=center;verticalAlign=middle;resizable=0;points=[];autosize=1;fontStyle=1" vertex="1" parent="1">
          <mxGeometry x="439" y="410" width="130" height="20" as="geometry" />
        </mxCell>
        <mxCell id="Wr8-bOFUWKxUMzQvNKIm-71" value="新工單,允許出貨" style="text;html=1;align=center;verticalAlign=middle;resizable=0;points=[];autosize=1;fontStyle=1" vertex="1" parent="1">
          <mxGeometry x="190" y="410" width="100" height="20" as="geometry" />
        </mxCell>
        <mxCell id="Wr8-bOFUWKxUMzQvNKIm-72" value="符合,直接提貨" style="text;html=1;align=center;verticalAlign=middle;resizable=0;points=[];autosize=1;fontStyle=1" vertex="1" parent="1">
          <mxGeometry x="228" y="565" width="90" height="20" as="geometry" />
        </mxCell>
      </root>
    </mxGraphModel>
  </diagram>
</mxfile>
